<svg width="24" height="24" viewBox="0 0 24 24" fill="none" xmlns="http://www.w3.org/2000/svg">
<path d="M13.5 2.75H10.5C9.5335 2.75 8.75 3.5335 8.75 4.5C8.75 5.4665 9.5335 6.25 10.5 6.25H13.5C14.4665 6.25 15.25 5.4665 15.25 4.5C15.25 3.5335 14.4665 2.75 13.5 2.75Z" stroke="#1B1B1B" stroke-width="1.5"/>
<path d="M8.04646 4.03308C8.01596 4.19385 8 4.35977 8 4.52942C8 4.88286 8.06927 5.22012 8.19498 5.52837C7.66343 5.5475 7.20914 5.57952 6.81078 5.63308C5.88786 5.75716 5.49287 5.97161 5.23223 6.23224C4.9716 6.49287 4.75715 6.88787 4.63307 7.81079C4.50319 8.77686 4.5 10.072 4.5 12V14C4.5 15.928 4.50319 17.2232 4.63307 18.1892C4.75715 19.1121 4.9716 19.5071 5.23223 19.7678C5.49287 20.0284 5.88786 20.2429 6.81078 20.3669C7.77686 20.4968 9.07198 20.5 11 20.5H13C14.928 20.5 16.2231 20.4968 17.1892 20.3669C18.1121 20.2429 18.5071 20.0284 18.7678 19.7678C19.0284 19.5071 19.2428 19.1121 19.3669 18.1892C19.4968 17.2232 19.5 15.928 19.5 14V12C19.5 10.072 19.4968 8.77686 19.3669 7.81079C19.2428 6.88787 19.0284 6.49287 18.7678 6.23224C18.5071 5.97161 18.1121 5.75716 17.1892 5.63308C16.7909 5.57952 16.3366 5.5475 15.805 5.52837C15.9307 5.22012 16 4.88286 16 4.52942C16 4.35977 15.984 4.19385 15.9535 4.03308C17.8533 4.10863 19.0136 4.35674 19.8284 5.17158C21 6.34315 21 8.22877 21 12V14C21 17.7712 21 19.6569 19.8284 20.8284C18.6569 22 16.7712 22 13 22H11C7.22876 22 5.34315 22 4.17157 20.8284C3 19.6569 3 17.7712 3 14V12C3 8.22877 3 6.34315 4.17157 5.17158C4.98641 4.35674 6.14665 4.10863 8.04646 4.03308Z" fill="#1B1B1B"/>
<path d="M11.9997 11.0536V16.1409M14.5433 13.5972H9.45605H14.5433Z" stroke="#1B1B1B" stroke-width="1.5" stroke-linecap="round"/>
</svg>
