<svg width="18" height="20" viewBox="0 0 18 20" fill="none" xmlns="http://www.w3.org/2000/svg">
<g clip-path="url(#clip0_88_1416)">
<path fill-rule="evenodd" clip-rule="evenodd" d="M16.9129 6.7129C15.8427 5.67505 14.9102 4.67169 12.9419 4.56724C11.3533 4.49824 10.6284 5.46709 9.14309 5.50159C7.76205 5.53609 7.86534 4.42924 4.99901 4.74069C2.51237 5.01669 0.336564 7.5083 0.509673 11.0033C0.682781 14.7752 3.30714 19.9999 5.75839 19.9999C7.48469 19.9654 7.89977 19.1346 9.31524 19.1346C11.076 19.1346 11.4911 20.1724 12.8721 19.9645C15.2545 19.6185 17.4992 15.8466 17.4992 14.6362C16.187 13.9443 14.8748 12.7675 14.7017 10.7953C14.564 8.82311 15.7719 7.5773 16.9119 6.71194L16.9129 6.7129Z" fill="white"/>
<path fill-rule="evenodd" clip-rule="evenodd" d="M8.6599 4.84427C8.4868 3.46047 9.41929 0.449449 12.7007 0C13.0804 2.31816 11.181 4.98227 8.6599 4.84427Z" fill="white"/>
</g>
<defs>
<clipPath id="clip0_88_1416">
<rect width="17" height="20" fill="white" transform="translate(0.5)"/>
</clipPath>
</defs>
</svg>
