<svg width="25" height="26" viewBox="0 0 25 26" fill="none" xmlns="http://www.w3.org/2000/svg">
<path fill-rule="evenodd" clip-rule="evenodd" d="M24.4219 13.3465C24.4219 12.4713 24.3458 11.6341 24.1936 10.835H12.6125V15.5917H19.2339C18.9549 17.1265 18.0796 18.4331 16.7858 19.2956V22.378H20.7561C23.0774 20.2343 24.4219 17.0885 24.4219 13.3465Z" fill="#4285F4"/>
<path fill-rule="evenodd" clip-rule="evenodd" d="M12.6267 25.3588C15.9501 25.3588 18.728 24.2552 20.7576 22.3779L16.7873 19.2955C15.6837 20.0312 14.2757 20.4625 12.6267 20.4625C9.43021 20.4625 6.7157 18.3061 5.75167 15.3887H1.64185V18.5725C3.6587 22.5935 7.81926 25.3461 12.6267 25.3461V25.3588Z" fill="#34A853"/>
<path fill-rule="evenodd" clip-rule="evenodd" d="M5.75081 15.4026C5.5098 14.6669 5.37027 13.8804 5.37027 13.0686C5.37027 12.2568 5.5098 11.4703 5.75081 10.7346V7.55078H1.64099C0.803803 9.21247 0.334473 11.0898 0.334473 13.0686C0.334473 15.0474 0.803803 16.9247 1.64099 18.5864L5.75081 15.4026Z" fill="#FBBC05"/>
<path fill-rule="evenodd" clip-rule="evenodd" d="M12.6258 5.65995C14.427 5.65995 16.0506 6.2815 17.3191 7.49922L20.8454 3.97289C18.7144 1.99409 15.9364 0.776367 12.6258 0.776367C7.81828 0.776367 3.65773 3.52893 1.64087 7.54996L5.75069 10.7338C6.71472 7.82902 9.42923 5.65995 12.6258 5.65995Z" fill="#EA4335"/>
</svg>
